# xmcd CD database file
#
# Track frame offsets:
#	150
#	14005
#	25860
#	39249
#	51952
#	60874
#	73406
#	83274
#	96009
#	110923
#	123752
#	134490
#	147228
#	161976
#	175005
#	186741
#	199111
#	208053
#
# Disc length: 2916 seconds
#
# Revision: 0
# Processed by: cddbd v1.5.1PL0 Copyright (c) Steve Scherf et al.
# Submitted via: CDex 1.51
#
DISCID=070b6212
DTITLE=Frank Sinatra and Dean Martin - A Couple of Swells
DYEAR=2003
DGENRE=Jazz
TTITLE0=Night and Day (Frank Sinatra)
TTITLE1=Hold Me (Dean Martin)
TTITLE2=Begin The Beguine (Frank Sinatra)
TTITLE3=One Foot in Heaven (Dean Martin)
TTITLE4=I've Got My Love To Keep Me Warm (Frank Sinatra)
TTITLE5=Louise (Dean Martin)
TTITLE6=Love Me or Leave Me (Frank Sinatra)
TTITLE7=Memory Lane (Dean Martin)
TTITLE8=Tea For Two (Frank Sinatra)
TTITLE9=Which Way Did My Heart Go (Dean Martin)
TTITLE10=At Long Last Love (Frank Sinatra)
TTITLE11=All of Me (Dean Martin)
TTITLE12=Blue Skies (Frank Sinatra)
TTITLE13=I Got Sun In The Morning (Dean Martin)
TTITLE14=Bewitched (Frank Sinatra)
TTITLE15=Sweetheart of Sigma Chi (Dean Martin)
TTITLE16=On The Sunny Side of The Street (Frank Sinatra)
TTITLE17=Oh Marie (Dean Martin)
EXTD=YEAR: 2003
EXTT0=
EXTT1=
EXTT2=
EXTT3=
EXTT4=
EXTT5=
EXTT6=
EXTT7=
EXTT8=
EXTT9=
EXTT10=
EXTT11=
EXTT12=
EXTT13=
EXTT14=
EXTT15=
EXTT16=
EXTT17=
PLAYORDER=
